<?xml version="1.0" encoding="utf-8"?>
<!-- Generator: Adobe Illustrator 19.2.1, SVG Export Plug-In . SVG Version: 6.00 Build 0)  -->
<svg version="1.1" id="Calque_1" xmlns="http://www.w3.org/2000/svg" xmlns:xlink="http://www.w3.org/1999/xlink" x="0px" y="0px"
	 viewBox="0 0 263 88" style="enable-background:new 0 0 263 88;" xml:space="preserve">
<style type="text/css">
	.st0{fill:none;}
	.st1{fill:#293171;}
	.st2{fill:#C1D10B;}
	.st3{fill:#FFFFFF;}
</style>
<title>Synapse-Logo-Couleur</title>
<g>
	<path class="st0" d="M35.6,64.5c1.3,0.9,2.7,1.5,4.2,1.9c2.1,0.5,4.2,0.7,6.3,0.7c2,0,4.1-0.3,6-1c1.6-0.6,3.1-1.6,4.3-2.7
		c1.1-1.1,2-2.4,2.6-3.8c0.6-1.3,0.8-2.8,0.8-4.2c0-1.6-0.2-3.2-0.7-4.8c-0.5-1.4-1.3-2.6-2.3-3.7c-1.2-1.2-2.5-2.2-4-3
		c-1.6-0.9-3.5-1.9-5.8-3c-1.6-0.7-3.1-1.5-4.6-2.3c-0.9-0.6-1.7-1.3-2.5-2c-0.5-0.5-0.9-1.1-1.1-1.8c-0.2-0.6-0.3-1.2-0.3-1.9
		c0-0.8,0.2-1.7,0.5-2.4c0.3-0.7,0.8-1.4,1.4-1.9c0.7-0.6,1.5-1,2.3-1.2c1.1-0.3,2.2-0.5,3.3-0.5c1,0,2,0.1,3,0.3
		c0.7,0.2,1.4,0.4,2.1,0.7c0.3,0.2,0.7,0.4,1,0.6c-0.2,0-0.4,0.1-0.6,0.2c-0.6,0.2-1.1,0.5-1.6,0.9s-0.8,0.9-1,1.5
		c-0.3,0.6-0.4,1.3-0.4,2c0,0.6,0.1,1.2,0.3,1.8s0.6,1.1,1,1.5s0.9,0.8,1.5,1c1.3,0.5,2.7,0.5,3.9,0c0.6-0.2,1.1-0.6,1.5-1.1
		c0.4-0.4,0.7-1,0.9-1.5c0.2-0.6,0.3-1.2,0.3-1.8c0-1.1-0.3-2.3-0.8-3.3c-0.5-1.1-1.3-2-2.3-2.8c-0.8-0.9-2-1.5-3.4-1.9
		c-1.7-0.5-3.4-0.7-5.2-0.7c-1.9,0-3.8,0.3-5.5,0.9c-1.5,0.6-2.9,1.4-4.1,2.5c-1.1,1-2,2.3-2.6,3.7c-0.6,1.4-0.9,3-0.9,4.6
		c0,1.2,0.1,2.5,0.4,3.7c0.3,1.2,0.8,2.4,1.5,3.5c0.8,1.2,1.8,2.3,3,3.1c1.4,1.1,3,2,4.7,2.7c2.5,1.1,4.5,2.1,6,3
		c1.3,0.7,2.4,1.5,3.5,2.4c0.7,0.6,1.2,1.3,1.6,2.1c0.3,0.7,0.4,1.4,0.4,2.2s-0.2,1.7-0.7,2.4s-1.2,1.4-1.9,1.9
		c-0.9,0.5-1.8,1-2.8,1.2c-1,0.3-2.1,0.4-3.2,0.4c-1.1,0-2.3-0.1-3.4-0.3c-0.8-0.2-1.6-0.4-2.4-0.7c-0.4-0.1-0.8-0.3-1.2-0.5
		c0.7-0.2,1.4-0.5,1.9-1c0.9-0.9,1.4-2.1,1.3-3.4c0-0.6-0.1-1.2-0.3-1.8c-0.2-0.5-0.5-1-0.9-1.5c-0.4-0.4-0.9-0.8-1.5-1
		c-1.3-0.5-2.7-0.5-3.9,0c-0.6,0.3-1.1,0.6-1.5,1.1s-0.7,1-0.9,1.6s-0.3,1.3-0.3,1.9c0,1,0.3,2.1,0.7,3
		C33.7,62.9,34.6,63.9,35.6,64.5z"/>
	<path class="st1" d="M86,21.5v-8.7c0-4.8-3.9-8.6-8.7-8.6l0,0h-30V14l25.9,14.9L86,21.5z"/>
	<path class="st1" d="M20.6,60.4l25.6,14.8l25.6-14.8V30.9L46.2,16.1L20.6,30.9V60.4z M32.8,56.9c0.2-0.6,0.5-1.1,0.9-1.6
		s1-0.8,1.5-1.1c1.3-0.5,2.7-0.5,3.9,0c0.6,0.2,1.1,0.6,1.5,1s0.7,0.9,0.9,1.5s0.3,1.2,0.3,1.8c0.1,1.3-0.4,2.5-1.3,3.4
		c-0.6,0.5-1.2,0.8-1.9,1c0.4,0.2,0.8,0.4,1.2,0.5c0.8,0.3,1.6,0.5,2.4,0.7c1.1,0.2,2.3,0.3,3.4,0.3c1.1,0,2.1-0.1,3.2-0.4
		c1-0.3,1.9-0.7,2.8-1.2c0.8-0.5,1.4-1.1,1.9-1.9c0.5-0.7,0.7-1.5,0.7-2.4c0-0.7-0.1-1.5-0.4-2.2c-0.4-0.8-0.9-1.5-1.6-2.1
		c-1.1-0.9-2.3-1.7-3.5-2.4c-1.5-0.9-3.5-1.9-6-3c-1.7-0.7-3.2-1.6-4.6-2.7c-1.2-0.9-2.2-1.9-3-3.1c-0.7-1.1-1.2-2.2-1.5-3.5
		c-0.3-1.2-0.4-2.4-0.4-3.7c0-1.6,0.3-3.1,0.9-4.5c0.6-1.4,1.5-2.7,2.6-3.8c1.2-1.1,2.6-2,4.1-2.5c1.8-0.6,3.6-1,5.5-0.9
		c1.8,0,3.5,0.2,5.2,0.7c1.3,0.4,2.6,1,3.7,1.9c1,0.7,1.7,1.7,2.3,2.8c0.5,1,0.8,2.2,0.8,3.3c0,0.6-0.1,1.2-0.3,1.8
		s-0.5,1.1-0.9,1.5c-0.4,0.5-0.9,0.8-1.5,1.1c-1.3,0.5-2.7,0.5-3.9,0c-0.5-0.2-1-0.5-1.5-0.9c-0.4-0.4-0.8-0.9-1-1.5
		s-0.3-1.2-0.3-1.8c0-0.7,0.1-1.4,0.4-2c0.2-0.6,0.6-1.1,1-1.5c0.5-0.4,1-0.7,1.6-0.9c0.2-0.1,0.4-0.1,0.6-0.2
		c-0.3-0.2-0.7-0.4-1-0.6c-0.7-0.3-1.4-0.5-2.1-0.7c-1-0.2-2-0.3-3-0.3c-1.1,0-2.3,0.1-3.3,0.5c-0.9,0.3-1.7,0.7-2.3,1.2
		s-1.1,1.1-1.4,1.9c-0.3,0.8-0.5,1.6-0.5,2.4c0,0.6,0.1,1.3,0.3,1.9c0.2,0.7,0.6,1.3,1.1,1.8c0.8,0.8,1.6,1.5,2.5,2
		c1.5,0.9,3,1.7,4.6,2.3c2.3,1,4.2,2,5.8,3c1.5,0.8,2.8,1.8,4,3c1,1,1.8,2.3,2.3,3.7c0.5,1.5,0.7,3.1,0.6,4.7c0,1.4-0.3,2.9-0.8,4.2
		c-0.6,1.4-1.5,2.7-2.6,3.8c-1.2,1.2-2.7,2.1-4.3,2.7c-1.9,0.7-4,1-6,1c-2.1,0-4.3-0.2-6.3-0.7c-1.5-0.4-2.9-1-4.2-1.9
		c-1-0.7-1.8-1.6-2.4-2.7c-0.5-0.9-0.7-2-0.7-3C32.4,58.2,32.6,57.5,32.8,56.9z"/>
	<path class="st1" d="M18.1,30.2c0-0.4,0.2-0.8,0.6-1.1L44.9,14V4.1h-30c-4.8,0-8.6,3.9-8.6,8.6v54.6l11.8-6.8
		C18.1,60.5,18.1,30.2,18.1,30.2z"/>
	<path class="st2" d="M46.8,77.7c-0.4,0.2-0.9,0.2-1.2,0l-26.1-15L6.3,70.3v4.9c0,4.8,3.9,8.7,8.6,8.7l0,0h62.4
		c4.8,0,8.7-3.9,8.7-8.6l0,0V70l-12.8-7.6L46.8,77.7z"/>
	<polygon class="st2" points="86,24.4 74.2,31.2 74.2,60.7 86,67.7 	"/>
	<path class="st3" d="M74.2,61.1v-0.4l-2-1.2l-1,1.7l2,1.2l0.4-0.2C74,62,74.2,61.6,74.2,61.1z"/>
	<path class="st3" d="M74.2,60.7v0.4c0,0.4-0.2,0.8-0.6,1.1l-0.4,0.2L86,70v-2.3L74.2,60.7z"/>
</g>
<g>
	<path class="st1" d="M104.5,38.2l-3.4-1c-2.2-0.6-2.6-1.2-2.6-2.2c0-2.2,2-2.6,3.7-2.6c1.8,0,3.9,0.6,5.7,1.4l0.6,0.2l1.4-4.7
		l-0.4-0.2c-1.6-0.8-4.9-1.6-7.5-1.6c-5.3,0-8.9,3-8.9,7.5c0,3.2,1.6,5.5,5.3,6.5l3.4,1c1.8,0.6,2.6,1,2.6,2.4
		c0,1.8-1.2,2.8-3.4,2.8c-2.4,0-4.7-1-6.1-1.8l-0.6-0.4L93,50.4l0.6,0.2c0.8,0.4,3.9,1.8,7.7,1.8c5.1,0,8.5-3.2,8.5-7.7
		C109.8,41.5,108,39.2,104.5,38.2z"/>
	<path class="st1" d="M123,45.1l-5.9-17.2h-5.9l9.3,23.3l-0.4,1.4c-0.8,2.6-1.8,3.7-3.7,3.7c-1.2,0-2.2-0.2-3.2-0.8l-0.6-0.4
		l-0.8,4.3l0.2,0.2c1.2,0.8,3,1.4,4.7,1.4c4.7,0,6.5-2.8,7.9-7.1l9.1-25.8h-5.5L123,45.1z"/>
	<path class="st1" d="M159.1,46.9c-0.6,0.4-1.2,0.6-1.8,0.6c-0.4,0-1,0-1-1.6v-9.1c0-6.3-2.6-9.5-7.7-9.5c-2.6,0-4.7,0.8-6.3,2.4v-2
		H137v24.1h5.3V36.4c0.4-1,1.6-4.3,4.7-4.3c2.8,0,4.1,1.8,4.1,5.3v9.3c0,3.4,1.6,5.3,4.9,5.3c1.4,0,2.8-0.4,4.1-1.2l0.2-0.2
		l-0.2-4.1L159.1,46.9z"/>
	<path class="st1" d="M185.6,46.9c-0.8,0.6-1.2,0.8-1.8,0.8c-0.4,0-1,0-1-2V27.9h-5.3v1.4c-1.6-1.4-3.9-1.8-5.5-1.8
		c-6.1,0-9.9,4.9-9.9,12.6c0,7.7,3.9,12.4,9.7,12.4c2.4,0,4.7-1,6.3-2.4c0.6,1.6,2,2.4,4.1,2.4c1.4,0,3-0.4,4.3-1.2l0.2-0.2
		l-0.2-4.5L185.6,46.9z M177.5,45.1c-0.8,1.2-2.6,2.4-4.5,2.4c-3.7,0-5.7-2.8-5.7-7.7s2.2-7.7,5.7-7.7c1.8,0,3.4,1.2,4.5,2.2V45.1z"
		/>
	<path class="st1" d="M202.5,27.5c-2.4,0-4.7,0.8-6.3,2.4c-0.8-1.6-2-2.4-4.1-2.4c-1.6,0-3.2,0.6-4.3,1.2l-0.2,0.2l0.4,4.7l0.8-0.6
		c0.6-0.4,1.2-0.8,1.6-0.8c0.6,0,1,0.2,1,2v26.2h5.3v-9.7c1.6,1.2,3.7,1.8,5.7,1.8c6.1,0,9.7-4.9,9.7-12.4
		C212.4,32.1,208.6,27.5,202.5,27.5z M201.3,47.5c-2,0-3.7-1.2-4.5-2.2v-11c0.8-1,2.4-2.2,4.5-2.2c3.7,0,5.7,2.8,5.7,7.5
		C207.1,44.7,204.9,47.5,201.3,47.5z"/>
	<path class="st1" d="M227.2,38.2l-3.4-1c-2.2-0.6-2.6-1.2-2.6-2.2c0-2.2,2-2.6,3.7-2.6c1.8,0,3.9,0.6,5.7,1.4l0.6,0.2l1.4-4.7
		l-0.4-0.2c-1.6-0.8-4.9-1.6-7.5-1.6c-5.3,0-8.9,3-8.9,7.5c0,3.2,1.6,5.5,5.3,6.5l3.7,1c1.8,0.6,2.6,1,2.6,2.4
		c0,1.8-1.2,2.8-3.4,2.8c-2.4,0-4.7-1-6.1-1.8l-0.6-0.4l-1,4.9l0.4,0.2c0.8,0.4,3.9,1.8,7.7,1.8c5.1,0,8.5-3.2,8.5-7.7
		C232.5,41.5,230.7,39.2,227.2,38.2z"/>
	<path class="st1" d="M253.2,45.5c-1.8,1.6-3.7,2.4-5.9,2.4c-3.9,0-5.9-2-6.3-6.1h14.2v-0.4c0.4-1.4,0.6-3,0.6-4.5
		c0-6.1-3.4-9.9-9.3-9.9c-6.5,0-10.7,5.1-10.7,12.8c0,8.1,4.1,12.6,11,12.6c3.4,0,6.5-1,8.7-3l0.2-0.2l-2.2-4.3L253.2,45.5z
		 M246.7,31.9c2.8,0,4.3,1.6,4.3,4.7c0,0.4,0,0.6,0,0.8h-9.5C241.6,34,243.7,31.9,246.7,31.9z"/>
</g>
</svg>
