<?xml version="1.0" encoding="utf-8"?>
<!-- Generator: Adobe Illustrator 19.2.1, SVG Export Plug-In . SVG Version: 6.00 Build 0)  -->
<svg version="1.1" id="Calque_1" xmlns="http://www.w3.org/2000/svg" xmlns:xlink="http://www.w3.org/1999/xlink" x="0px" y="0px"
	 viewBox="0 0 80.3 101.2" style="enable-background:new 0 0 80.3 101.2;" xml:space="preserve">
<style type="text/css">
	.st0{fill:none;}
	.st1{fill:#293171;}
	.st2{fill:#C1D10B;}
	.st3{fill:#FFFFFF;}
</style>
<title>Synapse-Logo-Couleur</title>
<path class="st0" d="M29.6,60.4c1.3,0.9,2.7,1.5,4.2,1.9c2.1,0.5,4.2,0.7,6.3,0.7c2,0,4.1-0.3,6-1c1.6-0.6,3.1-1.6,4.3-2.7
	c1.1-1.1,2-2.4,2.6-3.8c0.6-1.3,0.8-2.8,0.8-4.2c0-1.6-0.2-3.2-0.7-4.8c-0.5-1.4-1.3-2.6-2.3-3.7c-1.2-1.2-2.5-2.2-4-3
	c-1.6-0.9-3.5-1.9-5.8-3c-1.6-0.7-3.1-1.5-4.6-2.3c-0.9-0.6-1.7-1.3-2.5-2c-0.5-0.5-0.9-1.1-1.1-1.8c-0.2-0.6-0.3-1.2-0.3-1.9
	c0-0.8,0.2-1.7,0.5-2.4c0.3-0.7,0.8-1.4,1.4-1.9c0.7-0.6,1.5-1,2.3-1.2c1.1-0.3,2.2-0.5,3.3-0.5c1,0,2,0.1,3,0.3
	c0.7,0.2,1.4,0.4,2.1,0.7c0.3,0.2,0.7,0.4,1,0.6c-0.2,0-0.4,0.1-0.6,0.2c-0.6,0.2-1.1,0.5-1.6,0.9c-0.5,0.4-0.8,0.9-1,1.5
	c-0.3,0.6-0.4,1.3-0.4,2c0,0.6,0.1,1.2,0.3,1.8c0.2,0.6,0.6,1.1,1,1.5c0.4,0.4,0.9,0.8,1.5,1c1.3,0.5,2.7,0.5,3.9,0
	c0.6-0.2,1.1-0.6,1.5-1.1c0.4-0.4,0.7-1,0.9-1.5c0.2-0.6,0.3-1.2,0.3-1.8c0-1.1-0.3-2.3-0.8-3.3c-0.5-1.1-1.3-2-2.3-2.8
	c-1.1-0.8-2.4-1.5-3.7-1.9c-1.7-0.5-3.4-0.7-5.2-0.7c-1.9,0-3.8,0.3-5.5,0.9c-1.5,0.6-2.9,1.4-4.1,2.5c-1.1,1-2,2.3-2.6,3.7
	c-0.6,1.4-0.9,3-0.9,4.6c0,1.2,0.1,2.5,0.4,3.7c0.3,1.2,0.8,2.4,1.5,3.5c0.8,1.2,1.8,2.3,3,3.1c1.4,1.1,3,2,4.7,2.7
	c2.5,1.1,4.5,2.1,6,3c1.3,0.7,2.4,1.5,3.5,2.4c0.7,0.6,1.2,1.3,1.6,2.1c0.3,0.7,0.4,1.4,0.4,2.2c0,0.8-0.2,1.7-0.7,2.4
	c-0.5,0.7-1.2,1.4-1.9,1.9c-0.9,0.5-1.8,1-2.8,1.2c-1,0.3-2.1,0.4-3.2,0.4c-1.1,0-2.3-0.1-3.4-0.3c-0.8-0.2-1.6-0.4-2.4-0.7
	c-0.4-0.1-0.8-0.3-1.2-0.5c0.7-0.2,1.4-0.5,1.9-1c0.9-0.9,1.4-2.1,1.3-3.4c0-0.6-0.1-1.2-0.3-1.8c-0.2-0.5-0.5-1-0.9-1.5
	c-0.4-0.4-0.9-0.8-1.5-1c-1.3-0.5-2.7-0.5-3.9,0c-0.6,0.3-1.1,0.6-1.5,1.1c-0.4,0.5-0.7,1-0.9,1.6c-0.2,0.6-0.3,1.3-0.3,1.9
	c0,1,0.3,2.1,0.7,3C27.7,58.8,28.6,59.7,29.6,60.4z"/>
<path class="st1" d="M80,17.4V8.7C80,3.9,76.1,0,71.3,0c0,0,0,0,0,0h-30v9.8l25.9,14.9L80,17.4z"/>
<path class="st1" d="M14.6,56.3l25.6,14.8l25.6-14.8V26.7L40.2,12L14.6,26.7V56.3z M26.8,52.8c0.2-0.6,0.5-1.1,0.9-1.6
	c0.4-0.5,1-0.8,1.5-1.1c1.3-0.5,2.7-0.5,3.9,0c0.6,0.2,1.1,0.6,1.5,1c0.4,0.4,0.7,0.9,0.9,1.5c0.2,0.6,0.3,1.2,0.3,1.8
	c0.1,1.3-0.4,2.5-1.3,3.4c-0.6,0.5-1.2,0.8-1.9,1c0.4,0.2,0.8,0.4,1.2,0.5c0.8,0.3,1.6,0.5,2.4,0.7c1.1,0.2,2.3,0.3,3.4,0.3
	c1.1,0,2.1-0.1,3.2-0.4c1-0.3,1.9-0.7,2.8-1.2c0.8-0.5,1.4-1.1,1.9-1.9c0.5-0.7,0.7-1.5,0.7-2.4c0-0.7-0.1-1.5-0.4-2.2
	c-0.4-0.8-0.9-1.5-1.6-2.1c-1.1-0.9-2.3-1.7-3.5-2.4c-1.5-0.9-3.5-1.9-6-3c-1.7-0.7-3.2-1.6-4.6-2.7c-1.2-0.9-2.2-1.9-3-3.1
	c-0.7-1.1-1.2-2.2-1.5-3.5c-0.3-1.2-0.4-2.4-0.4-3.7c0-1.6,0.3-3.1,0.9-4.5c0.6-1.4,1.5-2.7,2.6-3.8c1.2-1.1,2.6-2,4.1-2.5
	c1.8-0.6,3.6-1,5.5-0.9c1.8,0,3.5,0.2,5.2,0.7c1.3,0.4,2.6,1,3.7,1.9c1,0.7,1.7,1.7,2.3,2.8c0.5,1,0.8,2.2,0.8,3.3
	c0,0.6-0.1,1.2-0.3,1.8c-0.2,0.6-0.5,1.1-0.9,1.5c-0.4,0.5-0.9,0.8-1.5,1.1c-1.3,0.5-2.7,0.5-3.9,0c-0.5-0.2-1-0.5-1.5-0.9
	c-0.4-0.4-0.8-0.9-1-1.5c-0.2-0.6-0.3-1.2-0.3-1.8c0-0.7,0.1-1.4,0.4-2c0.2-0.6,0.6-1.1,1-1.5c0.5-0.4,1-0.7,1.6-0.9
	c0.2-0.1,0.4-0.1,0.6-0.2c-0.3-0.2-0.7-0.4-1-0.6c-0.7-0.3-1.4-0.5-2.1-0.7c-1-0.2-2-0.3-3-0.3c-1.1,0-2.3,0.1-3.3,0.5
	c-0.9,0.3-1.7,0.7-2.3,1.2c-0.6,0.5-1.1,1.1-1.4,1.9c-0.3,0.8-0.5,1.6-0.5,2.4c0,0.6,0.1,1.3,0.3,1.9c0.2,0.7,0.6,1.3,1.1,1.8
	c0.8,0.8,1.6,1.5,2.5,2c1.5,0.9,3,1.7,4.6,2.3c2.3,1,4.2,2,5.8,3c1.5,0.8,2.8,1.8,4,3c1,1,1.8,2.3,2.3,3.7c0.5,1.5,0.7,3.1,0.6,4.7
	c0,1.4-0.3,2.9-0.8,4.2c-0.6,1.4-1.5,2.7-2.6,3.8c-1.2,1.2-2.7,2.1-4.3,2.7c-1.9,0.7-4,1-6,1c-2.1,0-4.3-0.2-6.3-0.7
	c-1.5-0.4-2.9-1-4.2-1.9c-1-0.7-1.8-1.6-2.4-2.7c-0.5-0.9-0.7-2-0.7-3C26.4,54,26.6,53.4,26.8,52.8z"/>
<path class="st1" d="M12.1,26c0-0.4,0.2-0.8,0.6-1.1L38.9,9.8V0h-30C4.1,0,0.3,3.9,0.3,8.7v54.6l11.8-6.8V26z"/>
<path class="st2" d="M40.8,73.6c-0.4,0.2-0.9,0.2-1.2,0l-26.1-15L0.3,66.1v4.9c0,4.8,3.9,8.7,8.6,8.7c0,0,0,0,0,0h62.4
	c4.8,0,8.7-3.9,8.7-8.6c0,0,0,0,0,0v-5.2l-12.8-7.6L40.8,73.6z"/>
<polygon class="st2" points="80,20.2 68.2,27.1 68.2,56.6 80,63.6 "/>
<path class="st3" d="M68.2,57v-0.4l-2-1.2l-1,1.7l2,1.2l0.4-0.2C68,57.8,68.2,57.4,68.2,57z"/>
<path class="st3" d="M68.2,56.6V57c0,0.4-0.2,0.8-0.6,1.1l-0.4,0.2L80,65.9v-2.3L68.2,56.6z"/>
<g>
	<path class="st1" d="M5.7,90L4,89.5c-1.1-0.3-1.3-0.6-1.3-1.1c0-1.1,1-1.3,1.8-1.3c0.9,0,1.9,0.3,2.8,0.7l0.3,0.1l0.7-2.3l-0.2-0.1
		c-0.8-0.4-2.4-0.8-3.7-0.8c-2.6,0-4.4,1.5-4.4,3.7c0,1.6,0.8,2.7,2.6,3.2l1.7,0.5c0.9,0.3,1.3,0.5,1.3,1.2c0,0.9-0.6,1.4-1.7,1.4
		c-1.2,0-2.3-0.5-3-0.9l-0.3-0.2L0,96l0.3,0.1C0.7,96.3,2.2,97,4.1,97c2.5,0,4.2-1.6,4.2-3.8C8.3,91.6,7.4,90.5,5.7,90z"/>
	<path class="st1" d="M14.8,93.4l-2.9-8.5H9l4.6,11.5l-0.2,0.7c-0.4,1.3-0.9,1.8-1.8,1.8c-0.6,0-1.1-0.1-1.6-0.4l-0.3-0.2l-0.4,2.1
		l0.1,0.1c0.6,0.4,1.5,0.7,2.3,0.7c2.3,0,3.2-1.4,3.9-3.5L20.1,85h-2.7L14.8,93.4z"/>
	<path class="st1" d="M32.6,94.3c-0.3,0.2-0.6,0.3-0.9,0.3c-0.2,0-0.5,0-0.5-0.8v-4.5c0-3.1-1.3-4.7-3.8-4.7c-1.3,0-2.3,0.4-3.1,1.2
		v-1h-2.6v11.9h2.6v-7.6c0.2-0.5,0.8-2.1,2.3-2.1c1.4,0,2,0.9,2,2.6v4.6c0,1.7,0.8,2.6,2.4,2.6c0.7,0,1.4-0.2,2-0.6l0.1-0.1l-0.1-2
		L32.6,94.3z"/>
	<path class="st1" d="M45.7,94.3c-0.4,0.3-0.6,0.4-0.9,0.4c-0.2,0-0.5,0-0.5-1v-8.8h-2.6v0.7c-0.8-0.7-1.9-0.9-2.7-0.9
		c-3,0-4.9,2.4-4.9,6.2c0,3.8,1.9,6.1,4.8,6.1c1.2,0,2.3-0.5,3.1-1.2c0.3,0.8,1,1.2,2,1.2c0.7,0,1.5-0.2,2.1-0.6l0.1-0.1l-0.1-2.2
		L45.7,94.3z M41.7,93.4c-0.4,0.6-1.3,1.2-2.2,1.2c-1.8,0-2.8-1.4-2.8-3.8s1.1-3.8,2.8-3.8c0.9,0,1.7,0.6,2.2,1.1V93.4z"/>
	<path class="st1" d="M54,84.7c-1.2,0-2.3,0.4-3.1,1.2c-0.4-0.8-1-1.2-2-1.2c-0.8,0-1.6,0.3-2.1,0.6l-0.1,0.1l0.2,2.3l0.4-0.3
		c0.3-0.2,0.6-0.4,0.8-0.4c0.3,0,0.5,0.1,0.5,1v12.9h2.6v-4.8C52,96.7,53,97,54,97c3,0,4.8-2.4,4.8-6.1C58.9,87,57,84.7,54,84.7z
		 M53.4,94.6c-1,0-1.8-0.6-2.2-1.1v-5.4c0.4-0.5,1.2-1.1,2.2-1.1c1.8,0,2.8,1.4,2.8,3.7C56.3,93.2,55.2,94.6,53.4,94.6z"/>
	<path class="st1" d="M66.2,90l-1.7-0.5c-1.1-0.3-1.3-0.6-1.3-1.1c0-1.1,1-1.3,1.8-1.3c0.9,0,1.9,0.3,2.8,0.7l0.3,0.1l0.7-2.3
		l-0.2-0.1c-0.8-0.4-2.4-0.8-3.7-0.8c-2.6,0-4.4,1.5-4.4,3.7c0,1.6,0.8,2.7,2.6,3.2l1.8,0.5c0.9,0.3,1.3,0.5,1.3,1.2
		c0,0.9-0.6,1.4-1.7,1.4c-1.2,0-2.3-0.5-3-0.9l-0.3-0.2L60.7,96l0.2,0.1c0.4,0.2,1.9,0.9,3.8,0.9c2.5,0,4.2-1.6,4.2-3.8
		C68.8,91.6,67.9,90.5,66.2,90z"/>
	<path class="st1" d="M79,93.6c-0.9,0.8-1.8,1.2-2.9,1.2c-1.9,0-2.9-1-3.1-3h7v-0.2c0.2-0.7,0.3-1.5,0.3-2.2c0-3-1.7-4.9-4.6-4.9
		c-3.2,0-5.3,2.5-5.3,6.3c0,4,2,6.2,5.4,6.2c1.7,0,3.2-0.5,4.3-1.5l0.1-0.1l-1.1-2.1L79,93.6z M75.8,86.9c1.4,0,2.1,0.8,2.1,2.3
		c0,0.2,0,0.3,0,0.4h-4.7C73.3,87.9,74.3,86.9,75.8,86.9z"/>
</g>
</svg>
